<svg width="400" height="225" xmlns="http://www.w3.org/2000/svg">
  <rect width="400" height="225" fill="#0f1629"/>
  <!-- Sidebar -->
  <rect x="0" y="0" width="80" height="225" fill="#151d35"/>
  <rect x="10" y="20" width="60" height="8" rx="2" fill="#3d4a8a"/>
  <rect x="10" y="40" width="40" height="6" rx="2" fill="#2a3460"/>
  <rect x="10" y="55" width="50" height="6" rx="2" fill="#2a3460"/>
  <rect x="10" y="70" width="45" height="6" rx="2" fill="#2a3460"/>
  <rect x="10" y="85" width="55" height="6" rx="2" fill="#2a3460"/>
  <rect x="10" y="100" width="40" height="6" rx="2" fill="#3d4a8a" opacity="0.8"/>
  <rect x="10" y="115" width="50" height="6" rx="2" fill="#2a3460"/>
  <!-- Main area -->
  <rect x="90" y="15" width="80" height="20" rx="3" fill="#1e2d52"/>
  <rect x="90" y="45" width="60" height="10" rx="2" fill="#2a3460"/>
  <rect x="160" y="45" width="60" height="10" rx="2" fill="#2a3460"/>
  <rect x="230" y="45" width="60" height="10" rx="2" fill="#2a3460"/>
  <!-- Chart lines -->
  <polyline points="90,130 130,110 160,120 200,95 240,105 270,85 300,90" stroke="#FF5E5B" stroke-width="2" fill="none"/>
  <polyline points="90,150 130,145 160,140 200,148 240,135 270,140 300,130" stroke="#3d7aed" stroke-width="2" fill="none"/>
  <!-- Metrics -->
  <rect x="90" y="170" width="70" height="40" rx="4" fill="#1e2d52"/>
  <rect x="170" y="170" width="70" height="40" rx="4" fill="#1e2d52"/>
  <rect x="250" y="170" width="70" height="40" rx="4" fill="#1e2d52"/>
  <rect x="100" y="178" width="40" height="8" rx="2" fill="#3d4a8a"/>
  <rect x="100" y="192" width="30" height="8" rx="2" fill="#FF5E5B"/>
  <rect x="180" y="178" width="40" height="8" rx="2" fill="#3d4a8a"/>
  <rect x="180" y="192" width="30" height="8" rx="2" fill="#3d7aed"/>
  <rect x="260" y="178" width="40" height="8" rx="2" fill="#3d4a8a"/>
  <rect x="260" y="192" width="30" height="8" rx="2" fill="#22c55e"/>
</svg>