<svg width="400" height="300" xmlns="http://www.w3.org/2000/svg">
  <rect width="400" height="300" fill="#f5c8a0"/>
  <!-- Background blobs -->
  <circle cx="300" cy="60" r="80" fill="#e8b88a" opacity="0.5"/>
  <!-- Body/outfit (teal) -->
  <ellipse cx="200" cy="280" rx="90" ry="60" fill="#1de9b6"/>
  <!-- Torso -->
  <rect x="155" y="190" width="90" height="80" rx="10" fill="#1de9b6"/>
  <!-- Head -->
  <ellipse cx="200" cy="155" rx="55" ry="60" fill="#a0522d"/>
  <!-- Hair (purple, flowing) -->
  <ellipse cx="200" cy="120" rx="58" ry="45" fill="#6a0dad"/>
  <path d="M 145 140 Q 110 200 130 260" stroke="#6a0dad" stroke-width="30" fill="none" stroke-linecap="round"/>
  <path d="M 255 145 Q 285 190 270 255" stroke="#6a0dad" stroke-width="22" fill="none" stroke-linecap="round"/>
  <!-- Flower in hair -->
  <circle cx="165" cy="105" r="18" fill="#ffd700"/>
  <circle cx="165" cy="105" r="9" fill="#ff8c00"/>
  <!-- Face features -->
  <ellipse cx="183" cy="162" rx="7" ry="8" fill="#3d1a00"/>
  <ellipse cx="217" cy="162" rx="7" ry="8" fill="#3d1a00"/>
  <path d="M 185 180 Q 200 193 215 180" stroke="#7a3b1e" stroke-width="2.5" fill="none" stroke-linecap="round"/>
  <!-- Shoulder -->
  <ellipse cx="140" cy="210" rx="25" ry="18" fill="#1de9b6"/>
  <ellipse cx="260" cy="210" rx="25" ry="18" fill="#1de9b6"/>
</svg>